<svg id="visual" viewBox="0 0 900 600" width="900" height="600" xmlns="http://www.w3.org/2000/svg" xmlns:xlink="http://www.w3.org/1999/xlink" version="1.1"><path d="M0 235L25 244C50 253 100 271 150 274C200 277 250 265 300 262C350 259 400 265 450 256C500 247 550 223 600 204C650 185 700 171 750 177C800 183 850 209 875 222L900 235L900 95L875 90C850 85 800 75 750 73C700 71 650 77 600 84C550 91 500 99 450 108C400 117 350 127 300 121C250 115 200 93 150 84C100 75 50 79 25 81L0 83Z" fill="#5876ed"></path><path d="M0 301L25 317C50 333 100 365 150 365C200 365 250 333 300 325C350 317 400 333 450 329C500 325 550 301 600 284C650 267 700 257 750 262C800 267 850 287 875 297L900 307L900 233L875 220C850 207 800 181 750 175C700 169 650 183 600 202C550 221 500 245 450 254C400 263 350 257 300 260C250 263 200 275 150 272C100 269 50 251 25 242L0 233Z" fill="#3d62e7"></path><path d="M0 493L25 494C50 495 100 497 150 494C200 491 250 483 300 486C350 489 400 503 450 505C500 507 550 497 600 486C650 475 700 463 750 461C800 459 850 467 875 471L900 475L900 305L875 295C850 285 800 265 750 260C700 255 650 265 600 282C550 299 500 323 450 327C400 331 350 315 300 323C250 331 200 363 150 363C100 363 50 331 25 315L0 299Z" fill="#2c57e4"></path></svg>